<?xml version="1.0" ?><svg enable-background="new 0 0 52 52" id="Layer_1" version="1.1" viewBox="0 0 52 52" xml:space="preserve" xmlns="http://www.w3.org/2000/svg" xmlns:xlink="http://www.w3.org/1999/xlink"><g><g><path d="M46.671875,31.123457c-2.5500488-1.1383667-4.7214966-1.3796997-6.4863281-0.7357178    c-0.1365967-1.9107056-0.5114136-3.7559204-1.0926514-5.4877319c2.652832-1.1555786,5.3238525-2.8797607,5.1707764-5.9181519    c-0.0283203-0.5517578-0.4921875-0.9736328-1.0498047-0.9482422c-0.5507813,0.0283203-0.9755859,0.4980469-0.9482422,1.0498047    c0.0752563,1.4888916-1.1483765,2.723877-3.9031982,3.9454346c-1.0021362-2.2318726-2.3572998-4.2055664-4.0392456-5.7247314    c-2.1040039-1.8918467-4.5288696-2.9907846-7.0595093-3.2210703v35.8859253    c4.6737061-0.4277344,8.7112427-3.8175049,10.9993896-8.7087402c2.0333252,0.7875977,3.4440918,2.3822632,4.2906494,4.8602905    C42.6953125,46.536541,43.0839844,46.7972832,43.5,46.7972832c0.1074219,0,0.2158203-0.0175781,0.3232422-0.0537109    c0.5224609-0.1787109,0.8017578-0.7470703,0.6230469-1.2695313c-1.0350952-3.0290527-2.8615112-5.0621338-5.4297485-6.0665283    c0.7365112-2.0939331,1.1686401-4.3964233,1.2259521-6.824707c1.3407593-0.8347759,3.1787109-0.7208233,5.6149292,0.3668213    c0.1318359,0.0595703,0.2705078,0.0869141,0.40625,0.0869141c0.3828125,0,0.7480469-0.2207031,0.9140625-0.5927734    C47.4033203,31.9398632,47.1767578,31.3480663,46.671875,31.123457z"/></g><g><path d="M14.0769653,23.2165356c-3.064209-1.2833862-4.4226685-2.5679932-4.3425903-4.1331177    c0.0273438-0.5517578-0.3964844-1.0214844-0.9482422-1.0498047c-0.5478516-0.0273438-1.0214844,0.3964844-1.0498047,0.9482422    c-0.1628418,3.2139893,2.8346558,4.9584351,5.6293945,6.1135864c-0.5666504,1.744873-0.9178467,3.6037598-1.0358276,5.5231934    c-1.8495483-0.9051514-4.1934204-0.7485962-7.00177,0.5048218c-0.5048828,0.2246094-0.7314453,0.8164063-0.5058594,1.3203106    c0.1660156,0.3720703,0.53125,0.5927734,0.9140625,0.5927734c0.1357422,0,0.2744141-0.0273438,0.40625-0.0869141    c2.6523438-1.1845684,4.6044922-1.2275372,5.9677734-0.1328125c0.0567627,0.0454102,0.1233521,0.0646973,0.1859131,0.0959473    c0.0849609,2.246521,0.4871216,4.381958,1.1575317,6.3380127c-2.8130493,0.9342651-4.803894,3.0153198-5.9000854,6.2232666    C7.375,45.9965019,7.6542969,46.5648613,8.1767578,46.7435722C8.2841797,46.779705,8.3925781,46.7972832,8.5,46.7972832    c0.4160156,0,0.8046875-0.2607422,0.9462891-0.6767578c0.90802-2.657959,2.4695435-4.2940063,4.7485352-5.0126953    c2.2751465,4.9730225,6.3466797,8.4295044,11.0688477,8.8612061V14.0829897    c-2.5310669,0.2301025-4.9561768,1.3290405-7.0604858,3.2211313    C16.4736328,18.8662548,15.0856323,20.9058056,14.0769653,23.2165356z"/></g><g><path d="M36.2290649,16.3643627c0.0224609-0.2740479,0.0341187-0.5508432,0.0341187-0.8302622    c0-2.9189453-1.2678223-5.5432739-3.2720337-7.3738403c-0.0864868-0.2136836-0.156311-0.4350581-0.1923218-0.6686397    c-0.1230469-0.7919922,0.0703125-1.5839844,0.5429688-2.2304688c0.4736328-0.6464844,1.1708984-1.0703125,1.9628906-1.1933594    c0.7871094-0.1230471,1.5839844,0.0703125,2.2294922,0.5429688c0.6474609,0.4736328,1.0712891,1.1708984,1.1933594,1.9619141    c0.1230469,0.7919922-0.0703125,1.5839839-0.5429688,2.2304683c-0.3261719,0.4453125-0.2294922,1.0712891,0.2158203,1.3974609    c0.4443359,0.328125,1.0722656,0.2304688,1.3974609-0.2158203c0.7890625-1.078125,1.1113281-2.398437,0.90625-3.717773    C40.5,4.9466987,39.7939453,3.7855656,38.7158203,2.9974797c-1.078125-0.7890625-2.4023438-1.111328-3.7177734-0.90625    c-1.3203125,0.2050781-2.4814453,0.9111328-3.2695313,1.9882815c-0.5548706,0.7581787-0.864502,1.6385498-0.9366455,2.552002    c-1.3618774-0.6962891-2.8983154-1.0974121-4.5286865-1.0974121s-3.1668091,0.401123-4.5286865,1.0974121    c-0.0721436-0.9134521-0.3817749-1.7938232-0.9366455-2.552002c-0.7880859-1.0771487-1.9492188-1.7832034-3.2685547-1.9882815    c-1.3222656-0.2041014-2.640625,0.1171875-3.71875,0.90625c-1.078125,0.7880859-1.7841797,1.949219-1.9882813,3.2695315    c-0.2050781,1.3193359,0.1171875,2.639648,0.90625,3.717773c0.3251953,0.4462891,0.953125,0.5439453,1.3974609,0.2158203    c0.4453125-0.3261719,0.5419922-0.9521484,0.2158203-1.3974609c-0.4726563-0.6464844-0.6660156-1.4384761-0.5429688-2.2304683    c0.1220703-0.7910156,0.5458984-1.4882813,1.1933594-1.9619141c0.6464844-0.4726563,1.4375-0.6699221,2.2304688-0.5429688    c0.7919922,0.1230469,1.4882813,0.546875,1.9619141,1.1933594c0.4726563,0.6464844,0.6660156,1.4384766,0.5429688,2.2304688    c-0.0360107,0.2336426-0.105896,0.4550171-0.1923828,0.6687007c-2.0042114,1.8305664-3.2719727,4.454895-3.2719727,7.3737793    c0,0.2778931,0.0118408,0.5544443,0.0344849,0.8290415c0.185791-0.1844482,0.371521-0.3689585,0.5646362-0.5433969    c2.7558594-2.4775391,6.0048828-3.7851563,9.4003906-3.7851563s6.6455078,1.3076172,9.3974609,3.7822266    C35.8547363,15.9925966,36.0419312,16.1784496,36.2290649,16.3643627z" fill="#3A92CC"/></g></g></svg>